/* XPM */
static char * createMuscle_xpm[] = {
"32 32 339 2",
"  	c None",
". 	c #C1C1C1",
"+ 	c #C0C0C0",
"@ 	c #BEBEBE",
"# 	c #C2C1C1",
"$ 	c #DAD2CC",
"% 	c #DDD4CD",
"& 	c #CAC4C0",
"* 	c #C3C1BF",
"= 	c #C2C2C2",
"- 	c #DAD0C7",
"; 	c #EBDBD0",
"> 	c #E7D1C3",
", 	c #E0CABB",
"' 	c #D8B7A8",
") 	c #D0ADA2",
"! 	c #CAB3B0",
"~ 	c #C5BABA",
"{ 	c #C2C0C0",
"] 	c #C4C2C0",
"^ 	c #E3D2C8",
"/ 	c #E8D2C5",
"( 	c #E6C7B9",
"_ 	c #E6BCB1",
": 	c #E6A6A1",
"< 	c #E69795",
"[ 	c #E07476",
"} 	c #D9535D",
"| 	c #D46A73",
"1 	c #CC9293",
"2 	c #C4B0AE",
"3 	c #C1BFBF",
"4 	c #D0C7C1",
"5 	c #E8DACB",
"6 	c #E6C9BD",
"7 	c #E09D97",
"8 	c #DE807D",
"9 	c #DC5E65",
"0 	c #E2566B",
"a 	c #E54565",
"b 	c #E74666",
"c 	c #E74863",
"d 	c #E25267",
"e 	c #D7727A",
"f 	c #CAA1A1",
"g 	c #C3BBBA",
"h 	c #C4C3C2",
"i 	c #E2D3C7",
"j 	c #E6D0C5",
"k 	c #DC9C9C",
"l 	c #DC7279",
"m 	c #D54D54",
"n 	c #D12F3C",
"o 	c #D93754",
"p 	c #E14266",
"q 	c #E5496B",
"r 	c #E8506E",
"s 	c #E9667D",
"t 	c #E67484",
"u 	c #DC7D84",
"v 	c #CCA09E",
"w 	c #C3BEBE",
"x 	c #D6CDC6",
"y 	c #E6D2C6",
"z 	c #C76F78",
"A 	c #CC5462",
"B 	c #D84658",
"C 	c #D5263F",
"D 	c #D32138",
"E 	c #D52C43",
"F 	c #DB3959",
"G 	c #DF4068",
"H 	c #E2496F",
"I 	c #E55F7C",
"J 	c #E78494",
"K 	c #E39198",
"L 	c #D19395",
"M 	c #C4BABB",
"N 	c #C6C3C1",
"O 	c #DEC1B7",
"P 	c #C26974",
"Q 	c #B32D43",
"R 	c #C22C3C",
"S 	c #D22038",
"T 	c #D61C3B",
"U 	c #D71D3C",
"V 	c #D5243D",
"W 	c #D7304A",
"X 	c #DF4060",
"Y 	c #E2466A",
"Z 	c #E25575",
"` 	c #E68596",
" .	c #E38491",
"..	c #CF8990",
"+.	c #C3BDBD",
"@.	c #C0BDBE",
"#.	c #C69A9A",
"$.	c #C46972",
"%.	c #AC2741",
"&.	c #B12239",
"*.	c #C22135",
"=.	c #D01F36",
"-.	c #D51E3A",
";.	c #D61C3C",
">.	c #D3203C",
",.	c #D62C45",
"'.	c #DF3D5C",
").	c #E44769",
"!.	c #E45473",
"~.	c #E67E90",
"{.	c #E07283",
"].	c #C7A5A9",
"^.	c #B9B8B9",
"/.	c #ADADAE",
"(.	c #A8A8A9",
"_.	c #A99296",
":.	c #B13C4B",
"<.	c #A61A35",
"[.	c #A81D38",
"}.	c #B22038",
"|.	c #BF1D36",
"1.	c #CB2235",
"2.	c #D61F3B",
"3.	c #DC2446",
"4.	c #D72341",
"5.	c #D4233F",
"6.	c #DE3A59",
"7.	c #E5496A",
"8.	c #E45674",
"9.	c #E77E91",
"0.	c #DC8491",
"a.	c #C3B8B9",
"b.	c #BFBFBF",
"c.	c #A5A4A7",
"d.	c #7E7B82",
"e.	c #706C75",
"f.	c #6D6972",
"g.	c #834A57",
"h.	c #A41932",
"i.	c #A41833",
"j.	c #A91B36",
"k.	c #B01E38",
"l.	c #BB1F39",
"m.	c #CB1E3A",
"n.	c #D71E40",
"o.	c #DD2548",
"p.	c #DA2847",
"q.	c #DC314D",
"r.	c #E13F5C",
"s.	c #E54A6B",
"t.	c #E55575",
"u.	c #E77387",
"v.	c #D37F88",
"w.	c #C2BFBF",
"x.	c #B1B1B2",
"y.	c #86838A",
"z.	c #66616B",
"A.	c #615C67",
"B.	c #625864",
"C.	c #8D2F41",
"D.	c #A2132E",
"E.	c #A51633",
"F.	c #A71733",
"G.	c #AC1B36",
"H.	c #B71E39",
"I.	c #C21C38",
"J.	c #CE1A38",
"K.	c #E03251",
"L.	c #DF3652",
"M.	c #E2425F",
"N.	c #E5486C",
"O.	c #E55374",
"P.	c #E2526A",
"Q.	c #CE9FA5",
"R.	c #ACABAD",
"S.	c #7B797F",
"T.	c #625E68",
"U.	c #605B66",
"V.	c #665561",
"W.	c #992235",
"X.	c #A31431",
"Y.	c #A61633",
"Z.	c #AB1C37",
"`.	c #B31F3A",
" +	c #BB1C36",
".+	c #C71B36",
"++	c #D7203F",
"@+	c #DD294A",
"#+	c #DE3152",
"$+	c #DF3A61",
"%+	c #DF416D",
"&+	c #E54667",
"*+	c #DB6F80",
"=+	c #A19FA2",
"-+	c #716D75",
";+	c #615C66",
">+	c #6E4D59",
",+	c #9C1E30",
"'+	c #9E0F2C",
")+	c #A1122F",
"!+	c #A61733",
"~+	c #AC1E39",
"{+	c #B01F3B",
"]+	c #BA1C39",
"^+	c #C51B35",
"/+	c #D01D3C",
"(+	c #DB2246",
"_+	c #DB3759",
":+	c #DB3762",
"<+	c #E03E66",
"[+	c #DF4B60",
"}+	c #C9AEB2",
"|+	c #BABABA",
"1+	c #949297",
"2+	c #6C6871",
"3+	c #6F4A58",
"4+	c #981D32",
"5+	c #9C0D2B",
"6+	c #9D0D2C",
"7+	c #A3132F",
"8+	c #A81834",
"9+	c #AC1A37",
"0+	c #B91938",
"a+	c #C01834",
"b+	c #C41935",
"c+	c #D23C54",
"d+	c #DA4360",
"e+	c #DF3C64",
"f+	c #E45A6F",
"g+	c #D49195",
"h+	c #C1C0C0",
"i+	c #B6B6B6",
"j+	c #8D8A90",
"k+	c #68636D",
"l+	c #6A4E5C",
"m+	c #8B293E",
"n+	c #9B0F2C",
"o+	c #9C0C2B",
"p+	c #9F0F2D",
"q+	c #A11330",
"r+	c #A71633",
"s+	c #B31634",
"t+	c #BB1430",
"u+	c #C01830",
"v+	c #D04154",
"w+	c #DE516C",
"x+	c #E76A7D",
"y+	c #E2999B",
"z+	c #C6BABC",
"A+	c #B0AFB1",
"B+	c #89878D",
"C+	c #69656F",
"D+	c #615965",
"E+	c #744453",
"F+	c #912538",
"G+	c #9F112B",
"H+	c #9D0E2C",
"I+	c #A41432",
"J+	c #AC1936",
"K+	c #B41D35",
"L+	c #C22B3F",
"M+	c #D65766",
"N+	c #E6868E",
"O+	c #E9A4A5",
"P+	c #CEAEB1",
"Q+	c #B4B3B4",
"R+	c #918E93",
"S+	c #6C505B",
"T+	c #873643",
"U+	c #9F1B2E",
"V+	c #A00E2B",
"W+	c #A31633",
"X+	c #B03A4F",
"Y+	c #B64454",
"Z+	c #C94B59",
"`+	c #DE8687",
" @	c #E9B1AD",
".@	c #DAA9A9",
"+@	c #C4BBBC",
"@@	c #B9B9B9",
"#@	c #99989B",
"$@	c #736F78",
"%@	c #635E69",
"&@	c #635763",
"*@	c #7A3E4F",
"=@	c #9D2B41",
"-@	c #AE3649",
";@	c #BA5D69",
">@	c #C15C6A",
",@	c #D76873",
"'@	c #E6AAA6",
")@	c #E4BCB5",
"!@	c #CCB3B5",
"~@	c #BDBDBD",
"{@	c #A7A6A8",
"]@	c #86848A",
"^@	c #6F6B74",
"/@	c #65606A",
"(@	c #615C68",
"_@	c #6A5E69",
":@	c #815763",
"<@	c #A35A66",
"[@	c #C98083",
"}@	c #DC8E92",
"|@	c #E6ADAA",
"1@	c #EACCC3",
"2@	c #DCC3BF",
"3@	c #C5BABB",
"4@	c #B8B7B8",
"5@	c #A6A5A7",
"6@	c #929094",
"7@	c #817E85",
"8@	c #78757C",
"9@	c #716D76",
"0@	c #69666F",
"a@	c #65606B",
"b@	c #74626C",
"c@	c #B3867D",
"d@	c #DFB1A4",
"e@	c #EBD9CD",
"f@	c #EADBD1",
"g@	c #CBB6B6",
"h@	c #B7B7B8",
"i@	c #B3B3B3",
"j@	c #ADACAD",
"k@	c #939196",
"l@	c #88868C",
"m@	c #7F7C83",
"n@	c #77727A",
"o@	c #857C7D",
"p@	c #B5A19A",
"q@	c #E4D3CA",
"r@	c #CEC3BF",
"s@	c #BCBCBC",
"t@	c #AEAEAF",
"u@	c #A3A2A4",
"v@	c #9A999C",
"w@	c #A49EA1",
"x@	c #B7B5B5",
". . . . . . . . . . . . . . . . . . . . . . . . . . . . . . . . ",
". . . . . . . . . . . . . . . . . . . . . . . . . . . . . . . . ",
". . . . . . . + @ + . . . . . . . . . . . . . . . . . . . . . . ",
". . . . . . . . . . . . . . . . . . . . . . . . . . . . . . . . ",
". . # $ % & * = . . . . . . . . . . . . . . . . . . . . . . . . ",
". . # - ; > , ' ) ! ~ { . . . . . . . . . . . . . . . . . . . . ",
". . . ] ^ / ( _ : < [ } | 1 2 3 . . . . . . . . . . . . . . . . ",
". . . . 4 5 6 7 8 9 0 a b c d e f g . . . . . . . . . . . . . . ",
". . . . h i j k l m n o p q r s t u v w . . . . . . . . . . . . ",
". . . . . x y z A B C D E F G H I J K L M . . . . . . . . . . . ",
". . . . . N O P Q R S T U V W X Y Z `  ...+.. . . . . . . . . . ",
". . . . . @.#.$.%.&.*.=.-.;.>.,.'.).!.~.{.].. . . . . . . . . . ",
". . + ^./.(._.:.<.[.}.|.1.2.3.4.5.6.7.8.9.0.a.. . . . . . . . . ",
". . b.c.d.e.f.g.h.i.j.k.l.m.n.o.p.q.r.s.t.u.v.w.. . . . . . . . ",
". . + x.y.z.A.B.C.D.E.F.G.H.I.J.3.K.L.M.N.O.P.Q.. . . . . . . . ",
". . . + R.S.T.U.V.W.D.X.Y.Z.`. +.+++@+#+$+%+&+*+M . . . . . . . ",
". . . . @ =+-+;+U.>+,+'+)+!+~+{+]+^+/+(+_+:+<+[+}+. . . . . . . ",
". . . . . |+1+2+A.U.3+4+5+6+7+8+9+0+a+b+c+d+e+f+g+h+. . . . . . ",
". . . . . . i+j+k+A.U.l+m+n+o+p+q+r+s+t+u+v+w+x+y+z+. . . . . . ",
". . . . . . + A+B+C+U.U.D+E+F+G+o+H+I+J+K+L+M+N+O+P+. . . . . . ",
". . . . . . . + Q+R+f.A.U.U.D+S+T+U+V+W+X+Y+Z+`+ @.@+@. . . . . ",
". . . . . . . . . @@#@$@%@A.U.U.U.&@*@=@-@;@>@,@'@)@!@. . . . . ",
". . . . . . . . . . ~@{@]@^@/@(@A.A.U._@:@<@[@}@|@1@2@3@. . . . ",
". . . . . . . . . . . + 4@5@6@7@8@9@2+0@a@/@b@c@d@e@f@g@h+. . . ",
". . . . . . . . . . . . . + ~@h@i@j@{@=+k@l@m@n@o@p@q@r@+ . . . ",
". . . . . . . . . . . . . . . . . . . b.s@@@i+t@u@v@w@x@+ . . . ",
". . . . . . . . . . . . . . . . . . . . . . . . + b.b.+ . . . . ",
". . . . . . . . . . . . . . . . . . . . . . . . . . . . . . . . ",
". . . . . . . . . . . . . . . . . . . . . . . . . . . . . . . . ",
". . . . . . . . . . . . . . . . . . . . . . . . . . . . . . . . ",
". . . . . . . . . . . . . . . . . . . . . . . . . . . . . . . . ",
". . . . . . . . . . . . . . . . . . . . . . . . . . . . . . . . "};
